<?xml version="1.0" encoding="utf-8"?>
<!-- Generator: Adobe Illustrator 26.0.3, SVG Export Plug-In . SVG Version: 6.00 Build 0)  -->
<svg version="1.1" id="Layer_1" xmlns="http://www.w3.org/2000/svg" xmlns:xlink="http://www.w3.org/1999/xlink" x="0px" y="0px"
	 viewBox="0 0 108 60" style="enable-background:new 0 0 108 60;" xml:space="preserve">
<style type="text/css">
	.st0{fill:#7BBF43;}
	.st1{fill:#74B643;}
	.st2{fill:#FBDE5F;}
	.st3{fill:#FCCC0A;}
	.st4{fill:#F06B5D;}
	.st5{fill:#EA394D;}
	.st6{fill:#B3B2B3;}
</style>
<path class="st0" d="M90.5,10.4C91.8,8.9,92.6,7,92.7,5L85,12.6C87,12.6,89,11.8,90.5,10.4z"/>
<path class="st1" d="M92.7,5c0,0-3.5,0-5.4,2.2c-1.3,1.6-2,3.4-2.2,5.4L92.7,5z"/>
<path class="st2" d="M86.3,13.9c4.2,0,7.6,3.4,7.6,7.6s-3.4,7.6-7.6,7.6l0,0V13.9z"/>
<path class="st3" d="M86.3,29.2c-4.2,0-7.6-3.4-7.6-7.6s3.4-7.6,7.6-7.6V29.2z"/>
<path class="st4" d="M78.7,21.6c0-3.3,2.2-6.2,5.3-7.3c-2.4-3.4-6.2-5.4-10.4-5.4v25.3c4.1,0,8-2,10.3-5.4
	C80.9,27.8,78.8,24.9,78.7,21.6z"/>
<path class="st5" d="M73.7,34.2c-6.9,0.1-12.6-5.5-12.6-12.4c0-0.1,0-0.2,0-0.3C61,14.7,66.5,9,73.4,8.9c0.1,0,0.2,0,0.3,0V34.2z"/>
<path class="st6" d="M18.2,26c0,0.7,0.1,1.4,0.3,2c0.2,0.6,0.5,1.2,0.9,1.7c0.4,0.5,0.9,0.9,1.5,1.2c0.7,0.3,1.4,0.5,2.2,0.4
	c1,0,2-0.2,2.8-0.8c0.8-0.6,1.3-1.4,1.6-2.3h3.8c-0.2,1-0.6,1.9-1.1,2.7c-1,1.5-2.5,2.6-4.3,3.1c-0.9,0.3-1.9,0.4-2.8,0.4
	c-1.3,0-2.6-0.2-3.8-0.7c-1.1-0.5-2-1.1-2.8-2c-0.8-0.9-1.4-1.9-1.7-3c-0.4-1.2-0.6-2.5-0.6-3.8c0-1.2,0.2-2.5,0.6-3.7
	c0.4-1.1,1-2.2,1.7-3.1c1.6-1.9,4-2.9,6.4-2.9c1.3,0,2.7,0.3,3.9,0.9c1.1,0.6,2.1,1.4,2.8,2.4c0.7,1,1.3,2.1,1.6,3.3
	c0.3,1.3,0.4,2.7,0.3,4H18.2z M27.5,23.4c0-0.6-0.2-1.2-0.4-1.8c-0.2-0.6-0.5-1.1-0.9-1.5c-0.4-0.4-0.9-0.8-1.4-1.1
	c-0.6-0.3-1.2-0.4-1.9-0.4c-0.7,0-1.3,0.1-1.9,0.4c-0.6,0.2-1.1,0.6-1.5,1c-0.4,0.4-0.8,1-1,1.5c-0.2,0.6-0.4,1.2-0.4,1.9L27.5,23.4
	z"/>
<path class="st6" d="M48.4,30c0,0.3,0,0.7,0.2,1c0.2,0.2,0.5,0.4,0.8,0.3h0.4c0.2,0,0.4,0,0.6-0.1V34l-0.5,0.2l-0.7,0.2
	c-0.2,0-0.5,0.1-0.7,0.1c-0.2,0-0.4,0-0.6,0c-0.7,0-1.4-0.1-2-0.5c-0.6-0.4-1-1-1.1-1.7c-0.8,0.8-1.8,1.4-3,1.8
	c-1.1,0.3-2.2,0.5-3.3,0.5c-0.8,0-1.6-0.1-2.4-0.4c-0.7-0.2-1.4-0.5-2-1c-0.6-0.4-1-1-1.4-1.6c-0.4-0.7-0.5-1.5-0.5-2.3
	c0-1,0.2-1.9,0.6-2.7c0.4-0.7,0.9-1.3,1.6-1.6c0.7-0.4,1.5-0.7,2.3-0.8c0.8-0.2,1.7-0.3,2.5-0.4c0.7-0.1,1.4-0.2,2.1-0.3
	c0.6,0,1.2-0.1,1.8-0.3c0.4-0.1,0.9-0.3,1.2-0.6c0.3-0.4,0.5-0.9,0.4-1.4c0-0.5-0.1-0.9-0.4-1.3c-0.2-0.3-0.6-0.6-0.9-0.8
	c-0.4-0.2-0.8-0.3-1.2-0.4c-0.4-0.1-0.8-0.1-1.3-0.1c-1,0-1.9,0.2-2.8,0.7c-0.7,0.5-1.2,1.3-1.2,2.2h-4c0-1,0.3-2,0.8-2.9
	c0.5-0.8,1.1-1.4,1.9-1.9c0.8-0.5,1.7-0.8,2.6-1c1-0.2,2-0.3,3-0.3c0.9,0,1.8,0.1,2.6,0.3c0.8,0.2,1.6,0.5,2.3,0.9
	c0.7,0.4,1.3,1,1.7,1.6c0.4,0.7,0.7,1.6,0.6,2.4L48.4,30z M44.4,24.9c-0.7,0.4-1.5,0.7-2.2,0.7c-0.9,0.1-1.8,0.2-2.7,0.4
	c-0.4,0.1-0.8,0.2-1.2,0.3c-0.4,0.1-0.7,0.3-1,0.5c-0.3,0.2-0.6,0.5-0.7,0.9c-0.2,0.4-0.3,0.8-0.3,1.3c0,0.4,0.1,0.8,0.4,1.1
	c0.3,0.3,0.6,0.6,0.9,0.7c0.4,0.2,0.8,0.3,1.2,0.4c0.4,0.1,0.8,0.1,1.2,0.1c0.5,0,1-0.1,1.4-0.2c0.5-0.1,1-0.3,1.5-0.6
	c0.4-0.3,0.8-0.6,1.1-1.1c0.3-0.5,0.5-1,0.5-1.6L44.4,24.9z"/>
<path class="st6" d="M49.1,15.9h3v-5.4h4v5.4h3.6v3h-3.6v9.7c0,0.4,0,0.8,0,1.1c0,0.3,0.1,0.5,0.2,0.8c0.1,0.2,0.3,0.4,0.6,0.5
	c0.3,0.1,0.7,0.2,1,0.2c0.3,0,0.6,0,0.8,0c0.3,0,0.6-0.1,0.8-0.1V34l-1.3,0.1c-0.4,0-0.9,0.1-1.3,0.1c-0.9,0-1.7-0.1-2.5-0.3
	c-0.6-0.2-1.1-0.5-1.5-0.9c-0.4-0.4-0.6-0.9-0.7-1.5c-0.1-0.7-0.2-1.3-0.2-2V18.9h-3L49.1,15.9z"/>
<path class="st6" d="M25.5,40.1c-0.2-0.5-0.6-0.9-1-1.2c-0.4-0.3-1-0.6-1.5-0.7c-1.1-0.3-2.2-0.3-3.3-0.1c-0.5,0.1-1,0.3-1.4,0.5
	c-0.4,0.2-0.8,0.6-1,1C17,40,16.9,40.5,16.9,41c0,0.4,0.1,0.9,0.4,1.2c0.2,0.3,0.6,0.6,0.9,0.9c0.4,0.2,0.8,0.4,1.2,0.6
	c0.4,0.1,0.8,0.3,1.2,0.4l3,0.7c0.6,0.1,1.3,0.3,1.9,0.5c0.6,0.2,1.2,0.6,1.7,1c0.5,0.4,0.9,0.9,1.2,1.5c0.3,0.6,0.5,1.4,0.5,2.1
	c0,0.9-0.2,1.8-0.7,2.5c-0.4,0.7-1,1.3-1.7,1.7c-0.7,0.4-1.5,0.8-2.3,0.9c-0.8,0.2-1.7,0.3-2.6,0.3c-1.8,0.1-3.7-0.4-5.2-1.5
	c-1.4-1.2-2.3-3-2.3-4.9h2.2c0,1.3,0.6,2.6,1.6,3.4c1.1,0.8,2.4,1.2,3.7,1.1c0.6,0,1.1-0.1,1.7-0.2c0.6-0.1,1.1-0.3,1.6-0.6
	c0.5-0.3,0.9-0.6,1.2-1.1c0.3-0.5,0.5-1,0.5-1.6c0-0.5-0.1-0.9-0.3-1.3c-0.2-0.4-0.5-0.7-0.9-0.9c-0.4-0.3-0.8-0.5-1.3-0.7
	c-0.5-0.2-1-0.3-1.5-0.4L19.7,46c-0.7-0.2-1.3-0.4-2-0.7c-0.6-0.2-1.1-0.5-1.6-0.9c-0.5-0.4-0.8-0.8-1.1-1.3c-0.3-0.6-0.4-1.3-0.4-2
	c0-0.8,0.2-1.6,0.6-2.3c0.4-0.6,0.9-1.2,1.6-1.6c0.7-0.4,1.4-0.7,2.2-0.9c0.8-0.2,1.6-0.3,2.4-0.3c0.9,0,1.7,0.1,2.6,0.4
	c0.8,0.2,1.5,0.6,2.1,1.1c0.6,0.5,1.1,1.1,1.4,1.8c0.4,0.8,0.6,1.7,0.6,2.6h-2.2C25.9,41.3,25.7,40.7,25.5,40.1z"/>
<path class="st6" d="M32.2,36.6v3h0.1c0.5-1.1,1.3-2,2.3-2.6c1.1-0.7,2.3-1,3.6-1c1.1,0,2.3,0.3,3.2,0.9c1,0.6,1.7,1.5,2,2.7
	c0.5-1.1,1.3-2.1,2.4-2.7c1-0.6,2.2-0.9,3.4-0.9c4,0,6,2.1,6,6.4v12.3H53V42.5c0.1-1.2-0.2-2.4-0.9-3.4c-0.9-0.9-2.1-1.3-3.3-1.2
	c-0.8,0-1.7,0.2-2.4,0.5c-0.6,0.3-1.1,0.8-1.5,1.5c-0.4,0.6-0.7,1.3-0.8,2.1c-0.2,0.8-0.2,1.6-0.2,2.4v10.3h-2.2V42.4
	c0-0.6-0.1-1.2-0.2-1.7c-0.1-0.5-0.3-1-0.6-1.4c-0.3-0.4-0.7-0.8-1.2-1c-0.6-0.2-1.2-0.4-1.8-0.3c-0.8,0-1.7,0.2-2.4,0.5
	c-0.7,0.3-1.2,0.8-1.7,1.4c-0.5,0.6-0.8,1.4-1,2.1c-0.2,0.9-0.3,1.8-0.3,2.7v10.1h-2.2V36.6H32.2z"/>
<path class="st6" d="M57.9,39.4c0.3-0.7,0.9-1.4,1.5-1.9c0.7-0.5,1.4-0.9,2.3-1.1c0.9-0.2,1.9-0.4,2.9-0.3c0.8,0,1.6,0.1,2.4,0.2
	c0.8,0.1,1.5,0.4,2.1,0.9c0.7,0.4,1.2,1.1,1.5,1.8c0.4,0.9,0.6,2,0.6,3v9.6c-0.1,0.6,0.3,1.2,1,1.3c0.1,0,0.2,0,0.3,0
	c0.2,0,0.5,0,0.7-0.1v1.9l-0.7,0.1c-0.3,0-0.5,0-0.8,0c-0.5,0-0.9-0.1-1.3-0.2c-0.3-0.1-0.6-0.4-0.8-0.7c-0.2-0.3-0.3-0.6-0.4-1
	c-0.1-0.4-0.1-0.9-0.1-1.3h-0.1c-0.4,0.5-0.8,1.1-1.2,1.6c-0.4,0.4-0.9,0.8-1.4,1.1c-0.5,0.3-1.1,0.6-1.7,0.7
	c-1.5,0.4-3.1,0.4-4.7,0c-0.7-0.2-1.4-0.5-1.9-1c-0.6-0.4-1-1-1.3-1.7c-0.3-0.7-0.5-1.6-0.5-2.4c-0.1-1.1,0.2-2.1,0.8-3
	c0.6-0.7,1.4-1.3,2.2-1.6c1-0.4,2.1-0.7,3.1-0.8l3.5-0.4c0.5,0,0.9-0.1,1.2-0.2c0.3-0.1,0.6-0.2,0.9-0.4c0.2-0.2,0.4-0.4,0.6-0.7
	C69,42.4,69,42,69,41.6c0-0.6-0.1-1.3-0.4-1.8c-0.2-0.5-0.6-0.9-1-1.1c-0.5-0.3-1-0.5-1.5-0.6c-0.6-0.1-1.2-0.2-1.8-0.2
	c-1.2-0.1-2.4,0.3-3.4,1c-0.9,0.8-1.5,2-1.4,3.2h-2.2C57.3,41.1,57.5,40.2,57.9,39.4z M69,44.8c-0.2,0.3-0.5,0.5-0.8,0.6
	c-0.3,0.1-0.7,0.2-1,0.2c-0.9,0.2-1.9,0.3-2.9,0.4c-0.9,0.1-1.8,0.3-2.7,0.6c-0.7,0.2-1.4,0.6-2,1.1c-0.6,0.5-0.8,1.3-0.8,2
	c0,0.5,0,1,0.2,1.5c0.2,0.4,0.5,0.8,0.9,1.1c0.4,0.3,0.8,0.6,1.3,0.7c0.5,0.2,1,0.2,1.5,0.2c0.8,0,1.6-0.1,2.4-0.4
	c0.7-0.2,1.4-0.6,2-1.1c0.6-0.5,1-1.1,1.4-1.8c0.4-0.8,0.5-1.6,0.5-2.4V44.8z"/>
<path class="st6" d="M76.3,36.6v4.2h0.1c0.5-1.4,1.4-2.6,2.6-3.4c1.3-0.8,2.7-1.2,4.2-1.1v2.2c-0.9-0.1-1.9,0.1-2.7,0.4
	c-0.8,0.3-1.5,0.8-2.1,1.3c-0.6,0.6-1.1,1.3-1.4,2.1c-0.3,0.8-0.5,1.7-0.5,2.6v9.7h-2.2V36.6H76.3z"/>
<path class="st6" d="M92.9,36.6v1.9h-3.7v12.2c0,0.6,0.1,1.2,0.3,1.7c0.2,0.4,0.7,0.6,1.5,0.7c0.6,0,1.3,0,1.9-0.1v1.9
	c-0.3,0-0.7,0-1,0h-1c-1.1,0.1-2.2-0.2-3.1-0.8c-0.7-0.9-1-2-0.8-3.2V38.4h-3.2v-1.9H87v-5.5h2.2v5.4L92.9,36.6z"/>
</svg>
